# xmcd
# 
# Track frame offsets:
#     150
#     13888
#     27369
#     40946
#     53972
#     68606
#     82520
#     96354
#     109554
#     123654
#     136266
#     149668
#     163091
#     175297
# 
# Disc length: 2507
# 
# Revision: 1
# Processed by: cddbd v1.5.2PL0 Copyright (c) Steve Scherf et al.
# Submitted via: BonkEnc v1.0.15
# 
DISCID=be09c90e
DTITLE=Various Artist - Original Blues Guitar Heroes - Blind Blake and Blind Lemon Jefferson
DYEAR=0
DGENRE=Blues
TTITLE0=Blind Blake - Blind Arther's Breakdown
TTITLE1=Blind Blake - Diddie Wa Diddie
TTITLE2=Blind Blake - Early Morning Blues
TTITLE3=Blind Blake - Police Dog Blues
TTITLE4=Blind Blake - Hastings St.
TTITLE5=Blind Blake - Hot Potatoes
TTITLE6=Blind Blake - Rope Stretchin' Blues - Part I
TTITLE7=Blind Lemon Jefferson - Match Box Blues
TTITLE8=Blind Lemon Jefferson - That Black Snake Moan 
TTITLE9=Blind Lemon Jefferson - Jack O' Diamond Blues
TTITLE10=Blind Lemon Jefferson - Rabbit Foot Blues
TTITLE11=Blind Lemon Jefferson - Hot Dogs
TTITLE12=Blind Lemon Jefferson - That Crawlin' Baby Blues
TTITLE13=Blind Lemon Jefferson - See That My Grave Is Kept  Clean
EXTD=Blues and Soul Recoreds No.50
EXTT0=
EXTT1=
EXTT2=
EXTT3=
EXTT4=
EXTT5=
EXTT6=
EXTT7=
EXTT8=
EXTT9=
EXTT10=
EXTT11=
EXTT12=
EXTT13=
PLAYORDER=
